# xmcd
#
# Track frame offsets:
#	150
#	15446
#	31444
#	50620
#	65837
#	80329
#	96042
#	111310
#	129621
#	143939
#
# Disc length: 2222 seconds
#
# Revision: 3777053082
# Processed by: cddbd v1.5.2PL0 Copyright (c) Steve Scherf et al.
# Submitted via: EZCDAudioConverter 8.0.7.1
#
DISCID=8908ac0a
DTITLE=Dan and Shay - Obsessed
DYEAR=2016
DGENRE=Country
TTITLE0=All Nighter
TTITLE1=Road Trippin'
TTITLE2=From The Ground Up
TTITLE3=Already Ready
TTITLE4=How Not To
TTITLE5=Lipstick
TTITLE6=Round The Clock
TTITLE7=Lately
TTITLE8=Sway
TTITLE9=Obsessed
EXTD=
EXTT0=
EXTT1=
EXTT2=
EXTT3=
EXTT4=
EXTT5=
EXTT6=
EXTT7=
EXTT8=
EXTT9=
PLAYORDER=
